<svg width="163" height="33" viewBox="0 0 163 33" fill="none" xmlns="http://www.w3.org/2000/svg">
<path d="M54.511 22.735L48.7641 8.15173H44.0165V25.1017H46.9591V10.644L52.6484 25.1017H57.4652V8.15173H54.511V22.735Z" fill="#F8FAFC"/>
<path d="M69.3112 13.4962C68.3491 12.9596 67.2103 12.6919 65.892 12.6919C64.5738 12.6919 63.4785 12.9583 62.4895 13.491C61.5018 14.0238 60.7293 14.7641 60.1733 15.7143C59.6173 16.6633 59.3394 17.7711 59.3394 19.0352C59.3394 20.2992 59.6148 21.3648 60.1618 22.3214C60.7088 23.2794 61.4736 24.026 62.4549 24.5627C63.4362 25.0993 64.5815 25.3669 65.892 25.3669C66.8567 25.3669 67.7176 25.2491 68.4721 25.016C69.2267 24.7817 69.8685 24.4679 70.3976 24.0734C70.9267 23.679 71.3392 23.2384 71.6338 22.7518C71.9285 22.2651 72.0989 21.7656 72.145 21.2521H69.1332C69.1101 21.4518 69.0358 21.6504 68.909 21.8501C68.7822 22.0487 68.5938 22.2344 68.3453 22.4072C68.0968 22.5789 67.7765 22.7146 67.3858 22.8145C66.9951 22.9144 66.5313 22.9631 65.9945 22.9631C65.2054 22.9631 64.5367 22.8043 63.9897 22.4867C63.4414 22.169 63.0263 21.7093 62.7419 21.1073C62.583 20.7692 62.469 20.3914 62.3998 19.9791H72.2705C72.2859 19.8945 72.2974 19.7613 72.3051 19.5769C72.3128 19.3925 72.3166 19.2209 72.3166 19.0595C72.3166 17.7955 72.0566 16.6851 71.5352 15.7323C71.0138 14.7781 70.2733 14.0328 69.3112 13.4962ZM62.7598 16.8618C63.0545 16.2804 63.4721 15.8334 64.0127 15.5235C64.5533 15.2136 65.19 15.0586 65.9266 15.0586C66.6633 15.0586 67.282 15.2021 67.765 15.4889C68.2479 15.7758 68.6079 16.1511 68.8462 16.6147C69.0409 16.9963 69.155 17.401 69.1895 17.8275H62.4267C62.501 17.4766 62.6112 17.1551 62.7598 16.8618Z" fill="#F8FAFC"/>
<path d="M82.6037 19.1837C82.6037 19.7421 82.4833 20.2928 82.2424 20.8371C82.0016 21.3814 81.6621 21.8309 81.2253 22.187C80.7884 22.543 80.267 22.721 79.6624 22.721C79.0257 22.721 78.5337 22.5801 78.1853 22.2958C77.8368 22.0128 77.596 21.6401 77.4666 21.1765C77.3372 20.7129 77.2719 20.2096 77.2719 19.6653V12.8981H74.237V20.4478C74.237 21.0228 74.3036 21.5966 74.4381 22.1716C74.5726 22.7453 74.802 23.2704 75.1286 23.7456C75.454 24.2207 75.9024 24.6036 76.4738 24.8943C77.0438 25.1851 77.7625 25.3311 78.6285 25.3311C79.4023 25.3311 80.0979 25.1876 80.7128 24.8995C81.3303 24.6126 81.8568 24.2143 82.2937 23.7097C82.4039 23.5816 82.5076 23.4497 82.605 23.3127V25.1018H85.6283V12.8981H82.605V19.1837H82.6037Z" fill="#F8FAFC"/>
<path d="M94.4792 12.6919C93.8515 12.6919 93.2917 12.7918 92.801 12.9903C92.3104 13.1888 91.8927 13.4667 91.5481 13.8227C91.3368 14.0405 91.1548 14.2825 90.996 14.5438V12.8981H87.9727V25.1018L90.996 25.1031V19.0352C90.996 18.6138 91.0498 18.1899 91.1574 17.7647C91.265 17.3395 91.4418 16.9489 91.6865 16.5929C91.9312 16.2369 92.263 15.9538 92.6806 15.7425C93.0982 15.5312 93.6184 15.4262 94.2384 15.4262C94.6291 15.4262 94.9404 15.4659 95.1749 15.5466C95.408 15.6272 95.563 15.6938 95.6399 15.7476L96.192 12.9788C96.1229 12.9327 95.9448 12.8738 95.6578 12.8008C95.3696 12.729 94.9776 12.6919 94.4792 12.6919Z" fill="#F8FAFC"/>
<path d="M108.916 24.1387C108.854 23.9159 108.814 23.6662 108.795 23.3857C108.776 23.1052 108.767 22.8196 108.767 22.5289V16.9669C108.767 16.0153 108.502 15.2238 107.974 14.5873C107.445 13.9508 106.744 13.4757 105.871 13.1619C104.997 12.8481 104.035 12.6906 102.986 12.6906C101.86 12.6906 100.851 12.8635 99.9623 13.208C99.0745 13.5525 98.375 14.0558 97.8651 14.7192C97.3553 15.3826 97.1003 16.192 97.1003 17.15H100.089C100.089 16.4443 100.335 15.9295 100.83 15.6042C101.324 15.2789 102.035 15.1162 102.963 15.1162C103.89 15.1162 104.525 15.2622 105.008 15.553C105.491 15.8437 105.732 16.2573 105.732 16.794V16.817C105.732 17.1 105.454 17.305 104.898 17.4317C104.342 17.5585 103.367 17.6904 101.972 17.8288C101.029 17.9133 100.171 18.1028 99.3973 18.3974C98.6235 18.692 98.0086 19.1095 97.5526 19.6499C97.0965 20.1904 96.8685 20.8781 96.8685 21.7131C96.8685 22.479 97.0645 23.1334 97.4552 23.6777C97.8459 24.2207 98.3853 24.6369 99.0758 24.9238C99.7663 25.2107 100.567 25.3541 101.479 25.3541C102.245 25.3541 102.954 25.2581 103.604 25.0673C104.256 24.8764 104.818 24.6062 105.289 24.2579C105.499 24.1029 105.682 23.9351 105.845 23.7571C105.878 23.9262 105.921 24.0875 105.972 24.2412C106.049 24.4487 106.134 24.6305 106.231 24.7868C106.327 24.9443 106.401 25.0493 106.455 25.1031H109.443C109.382 25.0429 109.299 24.9277 109.191 24.7586C109.084 24.5908 108.991 24.3834 108.916 24.1387ZM105.261 21.6606C104.932 22.1076 104.499 22.4405 103.962 22.6544C103.425 22.8683 102.842 22.9759 102.214 22.9759C101.441 22.9759 100.862 22.8491 100.477 22.5968C100.094 22.3432 99.9033 21.9641 99.9033 21.4583C99.9033 20.9524 100.131 20.563 100.587 20.3325C101.043 20.102 101.724 19.9458 102.628 19.8612C103.334 19.7921 104.031 19.6986 104.72 19.5795C105.096 19.5154 105.439 19.4412 105.755 19.3579V19.9304C105.755 20.636 105.591 21.2124 105.261 21.6606Z" fill="#F8FAFC"/>
<path d="M114.157 8.15179H111.179V25.1018H114.157V8.15179Z" fill="#F8FAFC"/>
<path d="M125.29 23.0167L121.951 8.15167H116.801V25.1004H119.686V10.3737L123.307 25.1004H127.354L130.928 10.3903V25.1017H133.813V8.15167H128.663L125.29 23.0167Z" fill="#00C1FA"/>
<path d="M145.831 13.496C144.869 12.9594 143.73 12.6918 142.412 12.6918C141.094 12.6918 139.998 12.9582 139.009 13.4909C138.022 14.0237 137.249 14.7639 136.693 15.7142C136.137 16.6632 135.859 17.771 135.859 19.0351C135.859 20.2991 136.135 21.3646 136.682 22.3213C137.229 23.2793 137.994 24.0259 138.975 24.5625C139.956 25.0991 141.101 25.3668 142.412 25.3668C143.377 25.3668 144.237 25.249 144.992 25.0159C145.747 24.7815 146.388 24.4678 146.917 24.0733C147.447 23.6789 147.859 23.2383 148.154 22.7516C148.448 22.265 148.619 21.7655 148.665 21.2519H145.653C145.63 21.4517 145.556 21.6502 145.429 21.85C145.302 22.0485 145.114 22.2342 144.865 22.4071C144.617 22.5787 144.296 22.7145 143.906 22.8144C143.515 22.9143 143.051 22.9629 142.514 22.9629C141.725 22.9629 141.057 22.8041 140.51 22.4865C139.961 22.1689 139.546 21.7091 139.262 21.1072C139.103 20.7691 138.989 20.3913 138.92 19.9789H148.79C148.806 19.8944 148.817 19.7612 148.825 19.5768C148.833 19.3924 148.837 19.2208 148.837 19.0594C148.837 17.7953 148.576 16.685 148.055 15.7321C147.534 14.778 146.793 14.0327 145.831 13.496ZM139.28 16.8617C139.574 16.2803 139.992 15.8333 140.533 15.5234C141.073 15.2135 141.71 15.0585 142.447 15.0585C143.183 15.0585 143.802 15.2019 144.285 15.4888C144.768 15.7757 145.129 16.1509 145.366 16.6145C145.561 16.9962 145.675 17.4009 145.709 17.8274H138.947C139.021 17.4765 139.131 17.155 139.28 16.8617Z" fill="#00C1FA"/>
<path d="M159.677 7.13995V14.3451C159.327 13.975 158.93 13.6574 158.482 13.3974C157.67 12.9261 156.784 12.6905 155.826 12.6905C154.868 12.6905 153.928 12.9313 153.073 13.4141C152.219 13.8969 151.528 14.6051 151.004 15.54C150.479 16.4749 150.216 17.616 150.216 18.9646C150.216 20.3132 150.473 21.5209 150.986 22.4699C151.5 23.4189 152.184 24.1373 153.039 24.624C153.892 25.1107 154.822 25.354 155.825 25.354C156.828 25.354 157.722 25.1017 158.528 24.5958C158.958 24.3256 159.34 24.0016 159.677 23.6276V25.1017H162.712V7.13995H159.677ZM159.677 19.5512C159.677 20.1646 159.53 20.7064 159.235 21.1777C158.939 21.649 158.555 22.0191 158.08 22.2867C157.604 22.5544 157.087 22.6889 156.528 22.6889C155.647 22.6889 154.895 22.3866 154.275 21.7809C153.653 21.1764 153.343 20.2376 153.343 18.9659C153.343 17.6942 153.655 16.7503 154.275 16.156C154.896 15.5631 155.647 15.266 156.528 15.266C157.065 15.266 157.572 15.394 158.051 15.6515C158.53 15.9076 158.921 16.2623 159.224 16.7144C159.526 17.1665 159.677 17.6954 159.677 18.2999V18.4485V19.5512Z" fill="#00C1FA"/>
<path d="M26.9467 7.15285L16.1512 0.970652C15.055 0.343116 13.6921 0.343116 12.5946 0.970652L1.79904 7.15285C0.689847 7.78815 0 8.97723 0 10.2543V22.5773C0 23.8569 0.689847 25.0447 1.79904 25.6787L12.5946 31.8609C13.1433 32.1741 13.7581 32.3319 14.3729 32.3319C14.9877 32.3319 15.6024 32.1753 16.1512 31.8609L26.9467 25.6787C28.0572 25.0434 28.7458 23.8544 28.7458 22.5773V10.2543C28.7458 8.97464 28.0559 7.78685 26.9467 7.15156V7.15285ZM27.5796 23.7793L22.0531 20.5899L27.8644 17.2607V22.5786C27.8644 23.0017 27.7634 23.4131 27.5796 23.7806V23.7793ZM0.881399 22.5773V17.4832L6.43123 20.6365L1.1286 23.6978C0.969409 23.351 0.882693 22.9706 0.882693 22.5773H0.881399ZM1.00435 9.45726L6.42994 12.5885L0.881399 15.7443V10.2543C0.881399 9.97999 0.925404 9.71216 1.00435 9.45726ZM14.7236 15.8491V9.3214L20.4223 12.56L14.7236 15.8491ZM20.8313 13.3415V19.8834L15.165 16.6125L20.8313 13.3415ZM13.8422 15.8491L8.2018 12.5936L13.8422 9.3861V15.8491ZM13.4009 16.6125L7.65303 19.93V13.2936L13.4009 16.6112V16.6125ZM6.77163 19.8148L1.13637 16.6125L6.77163 13.4075V19.8148ZM13.8422 17.3746V23.8324L8.20438 20.6287L13.8422 17.3746ZM14.7236 17.3746L20.2851 20.5847L14.7236 23.7703V17.3746ZM21.7127 13.2911L27.3868 16.5154L21.7127 19.7657V13.2911ZM20.8313 11.7759L15.231 8.59295L20.8313 5.40739V11.7746V11.7759ZM7.65303 11.8898V5.30129L13.4475 8.59424L7.65303 11.8898ZM13.3426 24.5608L7.65303 27.8201V21.3287L13.3426 24.5608ZM20.8313 21.286V27.802L15.121 24.5569L20.8313 21.286ZM27.8644 10.2517V15.7727L22.1955 12.5509L27.7129 9.3654C27.8113 9.64617 27.8631 9.94506 27.8631 10.2504L27.8644 10.2517ZM27.291 8.59295L21.7127 11.8134V5.16802L26.508 7.91495C26.8147 8.09092 27.0787 8.32252 27.291 8.59295ZM20.5957 4.52884L14.7236 7.86837V1.40281C15.0679 1.4481 15.4044 1.55808 15.7125 1.73405L20.5957 4.53014V4.52884ZM13.032 1.73275C13.287 1.58654 13.5601 1.48691 13.8409 1.43128V7.80497L8.11249 4.54955L13.032 1.73275ZM2.23779 7.91754L6.77163 5.3207V11.7694L1.4017 8.66928C1.62172 8.36781 1.90387 8.10903 2.23779 7.91754ZM1.62302 24.4301L6.77163 21.4581V27.5122L2.23779 24.9153C2.00741 24.7834 1.80163 24.619 1.62302 24.4301ZM8.37135 28.427L13.8422 25.2932V31.399C13.5614 31.3434 13.2883 31.2425 13.0333 31.0975L8.37135 28.4282V28.427ZM15.7137 31.0962C15.4044 31.2735 15.0679 31.3835 14.7249 31.4288V25.3488L20.2605 28.4942L15.715 31.0975L15.7137 31.0962ZM26.5093 24.914L21.714 27.6597V21.4089L27.0593 24.4948C26.8962 24.6553 26.7125 24.7963 26.5093 24.9128V24.914Z" fill="#00C1FA"/>
</svg>
